<?xml version="1.0" encoding="utf-8"?>
<!-- Generator: Adobe Illustrator 27.5.0, SVG Export Plug-In . SVG Version: 6.00 Build 0)  -->
<svg version="1.1" xmlns="http://www.w3.org/2000/svg" xmlns:xlink="http://www.w3.org/1999/xlink" x="0px" y="0px"
	 viewBox="0 0 500 500" style="enable-background:new 0 0 500 500;" xml:space="preserve">
<g id="BACKGROUND">
	<rect style="fill:#FFFFFF;" width="500" height="500"/>
</g>
<g id="OBJECTS">
	<g>
		<g>
			<g>
				<g>
					<g>
						<path style="fill:#331933;" d="M402.282,292.24c2.506,26.051,3.56,34.976,3.56,34.976s-5.837,26.189-6.126,34.313
							s2.157,51.47,2.157,51.47l17.573,1.161c0,0,4.846-75.097,7-84.233c2.045-8.674,5.653-63.283,3.582-79.74
							c-4.182,1.993-10.952,2.952-18.506,3.203C410.739,260.818,406.808,276.349,402.282,292.24z"/>
						<path style="fill:#3A2039;" d="M378.804,250.912c-1.813,8.854-3.854,20.465-5.613,34.549
							c-4.372,35.007-5.538,46.554-5.538,46.554s-11.367,24.304-13.408,32.174s-9.036,50.717-9.036,50.717l16.906,4.937
							c0,0,20.986-72.268,25.067-80.721c2.203-4.563,9.162-26.029,15.101-46.883c4.525-15.891,8.457-31.422,9.24-38.85
							C400.374,253.759,387.53,252.586,378.804,250.912z"/>
					</g>
					<g>
						<g>
							<path style="fill:#1D2230;" d="M346.278,411.7c0,0-0.729,2.604-1.506,7.214c-0.748,4.434-3.255,9.497-2.72,12.266
								c0.677,3.508,7.15,2.826,15.792,7.998c8.642,5.173,16.261,3.946,19.501,0.139c1.962-2.306-0.414-8.691-8.234-12.679
								c-6.355-3.241-1.738-0.79-1.738-0.79s-6.997-3.9-7.662-12.764C359.045,404.221,349.44,410.527,346.278,411.7z"/>
							<path style="fill:#343851;" d="M342.051,428.689c0,0-0.891,4.572,0.567,6.258c0.623,0.721,8.086,3.908,12.819,7.044
								c4.733,3.136,13.708,4.355,18.14,1.917s4.419-3.435,4.419-3.435l-0.209-3.656c0,0,0.556,5.021-9.196,4.764
								c-11.286-0.297-14.616-5.682-18.937-8.895C345.333,429.473,342.051,428.689,342.051,428.689z"/>
						</g>
						<g>
							<path style="fill:#343851;" d="M348.999,411.214c0,0,1.067,4.472,5.975,12.145c6.34,9.91,19.966,10.857,12.399,2.489
								c0,0-3.586-2.375-5.054-6.705s0.396-3.927,0.167-7.249C362.257,408.572,352.638,404.772,348.999,411.214z"/>
							<g>
								<path style="fill:#CED7DC;" d="M358.855,416.726l-4.029,0.825c-0.776,0.159-1.534-0.341-1.692-1.117l-0.042-0.203
									c-0.159-0.776,0.341-1.534,1.117-1.692l4.029-0.825c0.776-0.159,1.534,0.341,1.692,1.117l0.042,0.203
									C360.131,415.81,359.631,416.567,358.855,416.726z"/>
								<path style="fill:#CED7DC;" d="M361.324,422.321l-4.029,0.825c-0.776,0.159-1.534-0.341-1.692-1.117l-0.041-0.203
									c-0.159-0.776,0.341-1.534,1.117-1.692l4.029-0.825c0.776-0.159,1.534,0.341,1.692,1.117l0.042,0.203
									C362.6,421.404,362.1,422.162,361.324,422.321z"/>
								<path style="fill:#CED7DC;" d="M364.809,427.002l-4.029,0.825c-0.776,0.159-1.534-0.341-1.692-1.117l-0.042-0.203
									c-0.159-0.776,0.341-1.534,1.117-1.692l4.029-0.825c0.776-0.159,1.534,0.341,1.692,1.117l0.042,0.203
									C366.085,426.086,365.584,426.844,364.809,427.002z"/>
							</g>
						</g>
					</g>
					<g>
						<g>
							<path style="fill:#1D2230;" d="M402.679,409.374c0,0-0.234,2.694-0.145,7.368c0.086,4.496-1.442,9.935-0.404,12.558
								c1.314,3.323,7.549,1.454,16.999,4.939s16.71,0.869,19.19-3.472c1.502-2.629-2.015-8.465-10.438-10.937
								c-6.845-2.009-1.854-0.455-1.854-0.455s-7.598-2.538-9.891-11.126C413.843,399.662,405.57,407.636,402.679,409.374z"/>
							<path style="fill:#343851;" d="M401.668,426.851c0,0-0.03,4.658,1.715,6.045c0.746,0.593,8.669,2.345,13.901,4.551
								c5.232,2.206,12.453,3.036,17.327,0.937c4.646-2,4.565-3.877,4.565-3.877l-0.519-5.465c0,0,1.111,4.016-8.521,5.569
								c-11.146,1.796-15.414-2.88-20.255-5.238S401.668,426.851,401.668,426.851z"/>
						</g>
						<g>
							<path style="fill:#343851;" d="M405.263,408.393c0,0,1.876,4.198,8.119,10.83c8.064,8.566,21.63,6.976,12.645,0.152
								c0,0-3.964-1.671-6.207-5.654c-2.243-3.983-0.338-3.932-1.177-7.155C417.804,403.344,407.648,401.389,405.263,408.393z"/>
							<g>
								<path style="fill:#CED7DC;" d="M415.969,411.987l-3.807,1.556c-0.733,0.3-1.57-0.052-1.87-0.785l-0.078-0.191
									c-0.3-0.733,0.052-1.57,0.785-1.87l3.807-1.556c0.733-0.3,1.57,0.052,1.87,0.785l0.078,0.191
									C417.053,410.85,416.702,411.687,415.969,411.987z"/>
								<path style="fill:#CED7DC;" d="M419.43,417.028l-3.807,1.556c-0.733,0.3-1.57-0.052-1.87-0.785l-0.078-0.191
									c-0.3-0.733,0.052-1.57,0.785-1.87l3.807-1.556c0.733-0.3,1.57,0.052,1.87,0.785l0.078,0.191
									C420.515,415.891,420.163,416.728,419.43,417.028z"/>
								<path style="fill:#CED7DC;" d="M423.721,420.984l-3.807,1.556c-0.733,0.3-1.57-0.052-1.87-0.785l-0.078-0.191
									c-0.3-0.733,0.052-1.57,0.785-1.87l3.807-1.556c0.733-0.3,1.57,0.052,1.87,0.785l0.078,0.191
									C424.805,419.847,424.454,420.684,423.721,420.984z"/>
							</g>
						</g>
					</g>
				</g>
				<g>
					<g>
						<g>
							<path style="fill:#F7A180;" d="M344.535,81.07c0,0-0.686,6.315-3.212,8.987c-1.911,2.022,1.749,8.501,2.137,8.501
								c0.389,0,2.842,0.564,2.842,0.564s3.667-8.435,6.68-11.446C355.994,84.665,344.535,81.07,344.535,81.07z"/>
							<g>
								<g>
									<path style="fill:#F7A180;" d="M351.626,88.641c0,0,4.6-3.205,5.867-4.545s2.54-1.974,3.876-3.321s3.851-1.94,5.928-1.037
										c2.077,0.903,2.106-2.068-0.08-3.312c-2.185-1.245-4.545-1.292-5.508-0.345c-0.963,0.947-2.779,1.464-2.707,0.502
										c0.071-0.962,3.583-8.907,4.909-12.938c1.325-4.031,1.211-5.079-0.03-5.438c-1.24-0.359-1.614,0.106-2.408,2.207
										c-0.795,2.101-3.568,9.046-3.941,9.511c-0.373,0.465,2.787-10.692,2.822-12.639s-1.082-2.461-1.826-2.485
										c-0.745-0.025-1.074,2.131-1.838,4.511c-0.764,2.38-2.421,9.521-2.763,9.947c-0.342,0.426,0.224-1.747,0.747-4.957
										c0.523-3.21,0.573-5.415,0.139-6.481c-0.435-1.065-1.396-0.944-1.949-0.672c-0.553,0.272-0.845,4.351-0.958,5.742
										c-0.113,1.39-1.166,5.895-1.592,6.604c-0.426,0.709-0.681,0.074-0.575-0.653c0.106-0.727,0.437-3.996,0.394-6.085
										s-0.09-2.031-0.647-2.526c-0.558-0.495-1.367-0.38-1.653,0.393c-0.286,0.773-0.222,7.179-1.04,9.627
										c-0.819,2.448-2.155,6.136-2.312,7.284s-0.016,5.77,0.904,6.967C346.007,85.314,350.263,90.115,351.626,88.641z"/>
									<path style="fill:#DB836E;" d="M352.73,79.317c0,0,4.264-3.328,3.481-3.702c-0.783-0.374-4.214,0.885-5.167,0.247
										C350.092,75.225,350.264,79.057,352.73,79.317z"/>
								</g>
							</g>
						</g>
						<g>
							<path style="fill:#F7A180;" d="M440.121,119.416c0,0,3.431,8.03,3.242,11.702c-0.143,2.778,6.989,2.558,7.285,2.305
								c0.296-0.252,2.529-1.414,2.529-1.414s-2.762-10.312-2.423-14.558C451.092,113.205,440.121,119.416,440.121,119.416z"/>
							<g>
								<g>
									<path style="fill:#F7A180;" d="M443.577,122.67c0,0-4.182-3.735-5.278-5.217c-1.096-1.482-2.284-2.265-3.449-3.763
										c-1.165-1.498-3.59-2.389-5.76-1.742s-1.842-2.306,0.477-3.279c2.319-0.973,4.668-0.737,5.509,0.319
										c0.842,1.056,2.583,1.787,2.627,0.824c0.045-0.963-2.487-9.273-3.319-13.434c-0.832-4.161-0.592-5.187,0.683-5.395
										c1.275-0.207,1.589,0.299,2.126,2.48c0.537,2.181,2.455,9.409,2.77,9.916s-1.482-10.95-1.283-12.886
										c0.2-1.937,1.37-2.313,2.112-2.248s0.81,2.245,1.283,4.7c0.473,2.455,1.259,9.743,1.548,10.207s-0.013-1.761-0.146-5.011
										c-0.134-3.25,0.081-5.445,0.641-6.45c0.559-1.005,1.5-0.769,2.016-0.432c0.516,0.337,0.317,4.421,0.262,5.815
										s0.449,5.993,0.787,6.748c0.338,0.755,0.667,0.156,0.649-0.579c-0.018-0.734,0.046-4.02,0.34-6.088
										c0.294-2.068,0.333-2.005,0.946-2.43c0.613-0.425,1.402-0.214,1.594,0.589c0.191,0.802-0.643,7.153-0.124,9.682
										s1.402,6.35,1.42,7.509c0.018,1.158-1.605,5.792-1.734,6.808C450.142,120.327,444.752,124.297,443.577,122.67z"/>
									<path style="fill:#DB836E;" d="M443.6,113.281c0,0-3.833-3.816-3.011-4.093c0.822-0.277,4.077,1.385,5.099,0.866
										C446.711,109.536,446.08,113.32,443.6,113.281z"/>
								</g>
							</g>
						</g>
						<g>
							<path style="fill:none;" d="M403.636,145.429c0.133-0.099,0.262-0.201,0.387-0.309c-0.126,0.108-0.256,0.21-0.39,0.309
								C403.634,145.429,403.635,145.429,403.636,145.429z"/>
							<path style="fill:#1D2230;" d="M403.633,145.429c-1.075,0.795-2.384,1.341-3.908,2.23c1.532-0.894,2.84-1.435,3.91-2.23
								C403.635,145.429,403.634,145.429,403.633,145.429z"/>
							<path style="fill:#131823;" d="M404.023,145.12c0.89-0.758,1.597-1.764,2.109-3.414c0.021-0.105,0.021-0.205,0.035-0.308
								c0.006-0.045,0.011-0.089,0.015-0.133c0.011-0.11,0.036-0.225,0.037-0.332c-0.255-2.887-7.387-3.947-9.002-4.151
								c-0.206-0.026-0.335-0.04-0.335-0.04s-12.239-1.043-12.851,4.753c-0.575,5.448,11.685,6.433,13.157,6.532
								c0.904-0.028,1.753-0.157,2.538-0.368c1.524-0.889,2.833-1.435,3.908-2.23C403.767,145.331,403.897,145.228,404.023,145.12z"
								/>
							<path style="fill:#292F3F;" d="M397.335,148.036c0,0-0.053-0.003-0.147-0.009c-1.472-0.099-13.732-1.084-13.157-6.532
								c0.612-5.795,12.851-4.753,12.851-4.753s0.129,0.014,0.335,0.04c1.615,0.203,8.747,1.263,9.002,4.151
								c-0.001,0.107-0.026,0.222-0.037,0.332c-0.004,0.044-0.009,0.088-0.015,0.133c-0.014,0.103-0.013,0.202-0.035,0.308
								c-0.512,1.651-1.219,2.656-2.109,3.414c-0.125,0.108-0.255,0.21-0.387,0.309c-1.07,0.795-2.378,1.336-3.91,2.23
								c-0.08,0.047-0.159,0.091-0.24,0.14c0,0,7.022,2.221,10.91-1.308c0.034-0.03,0.071-0.053,0.104-0.085
								c0.472-0.447,1.154-1.468,1.487-1.95c2.388-3.465-0.292-7.908-5.852-9.604c-6.333-1.932-25.504-2.216-28.475,2.846
								c-0.539,0.919-0.682,1.864-0.583,2.861c0.065,0.652,0.307,1.299,0.681,1.928
								C379.957,146.196,387.287,149.222,397.335,148.036z"/>
							<path style="fill:#1D2230;" d="M458.107,171.33c5.247-5.829-5.587-49.939-5.587-49.939s-10.56,4.48-14.427,3.703
								c0,0,1.36,27.388,0,27.388c-0.058,0-0.197,0.034-0.37,0.082c-1.117,0.194-4.942,0.522-13.815-1.556
								c-1.564-0.366-3.099-0.741-4.585-1.114l0.018-0.119l-8.946-3.283c-3.888,3.529-10.91,1.308-10.91,1.308
								c0.082-0.049,0.16-0.093,0.24-0.14c-0.785,0.211-1.633,0.339-2.538,0.368c0.094,0.006,0.147,0.009,0.147,0.009
								c-10.048,1.186-17.378-1.84-19.577-5.548c-0.242,0.016-0.482,0.029-0.719,0.04l-3.921-0.026l-0.081-0.049
								c-1.474-0.893-3.138-1.891-4.91-2.945l-0.012-0.007v0c-10.012-5.957-23.295-13.641-23.295-13.641s7.825-23.318,7.967-33.422
								c0,0-12.145-2.196-13.505-6.898c0,0-19.14,36.434-18.557,43.138c0.583,6.704,42.118,37.309,44.45,43.43
								c2.332,6.121-1.02,70.353,3.643,75.492c1.029,1.134,4.773,2.312,9.985,3.312c8.726,1.674,21.57,2.847,32.718,2.478
								c7.554-0.25,14.324-1.21,18.506-3.203c2.663-1.269,4.279-2.955,4.372-5.146c0.133-3.125-11.154-68.214-9.988-68.214
								S452.861,177.16,458.107,171.33z"/>
						</g>
					</g>
					<g>
						<path style="fill:#FFFFFF;" d="M395.003,172.074c-3.236-2.387-3.748-7.416-1.521-14.946c1.566-5.294-0.151-6.71-0.169-6.724
							l0.587-0.81c0.097,0.068,2.339,1.741,0.541,7.817c-1.44,4.87-2.409,11.228,1.156,13.857L395.003,172.074z"/>
						<path style="fill:#FFFFFF;" d="M405.365,169.922c-0.057-0.184-1.385-4.535,0.154-8.682c1.379-3.716-4.555-10.843-4.614-10.915
							l0.766-0.644c0.261,0.311,6.366,7.647,4.786,11.906c-1.417,3.82-0.149,7.995-0.137,8.036L405.365,169.922z"/>
					</g>
				</g>
			</g>
			<g>
				<g>
					<path style="fill:#F7A180;" d="M396.719,147.991c0.1,0.007,0.194,0.016,0.296,0.023l2.502-0.205
						c-0.008-0.003-0.031-0.01-0.031-0.01c0.082-0.049,0.16-0.093,0.24-0.14c1.365-0.797,2.55-1.313,3.55-1.979
						c-0.296-2.214-0.793-6.542-0.907-7.214c-0.604-3.559-0.604-3.559-0.604-3.559l-15.282,1.032c0,0-0.338,6.222-0.073,9.388
						C389.566,147.243,394.921,147.84,396.719,147.991z"/>
					<path style="fill:#D66C54;" d="M386.445,136.165l-0.109,2.644c0,0,8.948,5.859,15.914-1.04l-0.421-3.081L386.445,136.165z"/>
				</g>
				<g>
					<g>
						<g>
							<g>
								<path style="fill:#F7A180;" d="M391.489,138.784c0,0,6.58,1.028,12.371-3.587c5.791-4.615,5.612-8.978,6.386-8.534
									c0.956,0.548,2.616,0.339,4.068-5.016c1.297-4.782,0.154-6.398-0.933-6.646c-0.696-0.159-1.464,0.48-1.464,0.48
									s2.788-23.57-15.194-25.084c-22.381-1.884-21.226,18.581-20.289,25.333c0,0-2.106-2.488-3.125,0.876
									c-1.019,3.364,1.039,10.467,3.536,10.686c0.216,0.019,1.344-0.47,1.395-0.4C379.15,128.134,381.675,136.402,391.489,138.784
									z"/>
							</g>
							<g>
								<path style="fill:#D66C54;" d="M376.321,119.978c0,0-0.845,0.878-0.309,1.996c0.536,1.118-0.027,1.396-0.646,0.813
									c-0.619-0.583-1.15-3.864-0.571-4.549S376.437,119.23,376.321,119.978z"/>
								<path style="fill:#D66C54;" d="M412.23,119.302c0,0,0.732,0.975,0.065,2.019c-0.668,1.044-0.142,1.389,0.543,0.885
									s1.611-3.696,1.12-4.446C413.466,117.01,412.206,118.545,412.23,119.302z"/>
							</g>
						</g>
						<g>
							<g>
								
									<ellipse transform="matrix(0.9999 -0.0162 0.0162 0.9999 -1.9819 6.2401)" style="fill:#D66C54;" cx="384.274" cy="125.481" rx="2.165" ry="2.03"/>
								
									<ellipse transform="matrix(0.9999 -0.0162 0.0162 0.9999 -1.8816 6.2853)" style="fill:#2D1816;" cx="387.119" cy="119.316" rx="1.869" ry="2.301"/>
								<path style="fill:#2D1816;" d="M387.666,114.056c0,0-2.607-0.097-2.798,1.344c-0.201,1.517,1.023-0.187,3.076,0.178
									c0.918,0.163,1.319,0.064,1.31-0.487C389.239,114.11,387.812,114.071,387.666,114.056z"/>
								<path style="fill:#2D1816;" d="M401.547,113.956c0,0,2.605-0.134,2.817,1.304c0.223,1.514-1.026-0.172-3.073,0.222
									c-0.915,0.176-1.318,0.083-1.317-0.468C399.975,114.033,401.401,113.973,401.547,113.956z"/>
								
									<ellipse transform="matrix(0.0701 -0.9975 0.9975 0.0701 250.4268 520.6069)" style="fill:#D66C54;" cx="404.464" cy="125.976" rx="2.03" ry="2.165"/>
								
									<ellipse transform="matrix(0.0701 -0.9975 0.9975 0.0701 254.2014 511.6503)" style="fill:#2D1816;" cx="401.547" cy="119.473" rx="2.301" ry="1.869"/>
								<path style="fill:#D66C54;" d="M393.818,132.695c-0.023,0-0.047,0-0.071,0c-1.48-0.013-2.243-0.721-2.61-1.261
									c-0.194-0.286-0.049-0.678,0.282-0.777l0,0c0.216-0.065,0.444,0.022,0.573,0.206c0.232,0.331,0.739,0.793,1.765,0.803
									c1.136,0.01,1.859-0.58,2.206-0.962c0.161-0.176,0.426-0.21,0.632-0.089l0.001,0c0.278,0.163,0.344,0.543,0.127,0.781
									C396.245,131.923,395.298,132.685,393.818,132.695z"/>
							</g>
							<path style="fill:#D66C54;" d="M394.421,123.215c0,0-2.774-0.174-2.392,2.315s3.11,1.485,3.11,1.485s0.412-0.338,0.099-0.687
								c-0.313-0.349-2.274,0.51-2.438-0.885c-0.165-1.395,1.634-1.263,1.863-1.524
								C394.891,123.657,394.421,123.215,394.421,123.215z"/>
						</g>
					</g>
					<g>
						<path style="fill:#331933;" d="M376.433,115.73c0,0,0.428,6.186,1.594,6.704s2.137,0.032,2.623-1.036
							c0.486-1.069-0.156-11.076,4.197-12.825c4.353-1.749,13.308,2.429,20.482,1.36c7.174-1.069,9.912-8.964,10.009-11.659
							c0.097-2.695-4.179,0.291-8.066-3.983c-3.886-4.275-14.524-6.275-21.958-3.303c-7.434,2.972-9.878,7.967-10.769,10.882
							C373.655,104.784,376.433,115.73,376.433,115.73z"/>
						<path style="fill:#331933;" d="M411.917,115.481c0,0-1.39,5.042-1.828,6.135c-0.437,1.093-0.874-0.146-1.749-0.656
							c-0.874-0.51,0.448-9.286-1.749-12.679s4.809-2.988,4.809-2.988l-0.096-7.47C411.305,97.824,413.089,108.982,411.917,115.481z
							"/>
					</g>
				</g>
			</g>
		</g>
		<g>
			<g>
				<g>
					<g>
						<path style="fill:#F7A180;" d="M89.847,141.81l19.941-8.003l8.116,3.22l10.898,5.429l-7.318,17.34
							c0,0-27.083,13.798-20.797,1.123c0.091-0.183-7.542-2.403-7.542-2.403L89.847,141.81z"/>
						<path style="fill:#F7A180;" d="M102.311,127.772c0,0-0.84,8.835-0.437,11.358c1.389,8.683,16.649,3.609,16.229,1.022
							c-0.134-0.823-0.538-8.175-0.635-9.101c-0.405-3.838-0.405-3.838-0.405-3.838L102.311,127.772z"/>
					</g>
					<path style="fill:#D66C54;" d="M102.194,129.09l-0.226,2.558c0,0,7.388,4.719,15.472-0.855l-0.34-3.059L102.194,129.09z"/>
				</g>
				<g>
					<g>
						<g>
							<g>
								<path style="fill:#F7A180;" d="M106.69,131.508c0,0,6.555,1.176,12.449-3.307s5.813-8.849,6.577-8.388
									c0.944,0.569,2.608,0.398,4.18-4.924c1.404-4.752,0.298-6.393-0.784-6.665c-0.692-0.174-1.474,0.447-1.474,0.447
									s3.318-23.501-14.625-25.42c-22.332-2.388-21.639,18.098-20.855,24.87c0,0-2.05-2.535-3.144,0.806
									c-1.095,3.34,0.803,10.488,3.295,10.763c0.216,0.024,1.355-0.439,1.404-0.369C94.595,120.583,96.932,128.906,106.69,131.508
									z"/>
							</g>
							<g>
								<path style="fill:#D66C54;" d="M91.95,112.365c0,0-0.865,0.859-0.354,1.989c0.511,1.13-0.059,1.395-0.664,0.798
									c-0.606-0.597-1.063-3.889-0.469-4.561C91.057,109.92,92.083,111.62,91.95,112.365z"/>
								<path style="fill:#D66C54;" d="M127.865,112.498c0,0,0.71,0.991,0.019,2.02c-0.691,1.029-0.174,1.385,0.522,0.897
									c0.696-0.488,1.694-3.658,1.22-4.419S127.858,111.741,127.865,112.498z"/>
							</g>
						</g>
						<g>
							<g>
								
									<ellipse transform="matrix(0.0063 -1 1 0.0063 -18.8991 217.0721)" style="fill:#D66C54;" cx="99.777" cy="118.046" rx="2.03" ry="2.165"/>
								
									<ellipse transform="matrix(0.0063 -1 1 0.0063 -9.8348 213.9947)" style="fill:#2D1816;" cx="102.76" cy="111.946" rx="2.301" ry="1.869"/>
								<path style="fill:#2D1816;" d="M103.426,106.7c0,0-2.604-0.155-2.827,1.281c-0.235,1.512,1.027-0.164,3.072,0.247
									c0.914,0.184,1.317,0.093,1.321-0.458C104.997,106.79,103.571,106.718,103.426,106.7z"/>
								<path style="fill:#2D1816;" d="M117.305,106.913c0,0,2.608-0.075,2.787,1.367c0.189,1.519-1.022-0.195-3.078,0.152
									c-0.919,0.155-1.32,0.053-1.306-0.498C115.732,106.955,117.159,106.927,117.305,106.913z"/>
								
									<ellipse transform="matrix(0.0926 -0.9957 0.9957 0.0926 -9.6417 227.4111)" style="fill:#D66C54;" cx="119.95" cy="118.996" rx="2.03" ry="2.165"/>
								
									<ellipse transform="matrix(0.0926 -0.9957 0.9957 0.0926 -5.6161 218.6944)" style="fill:#2D1816;" cx="117.181" cy="112.428" rx="2.301" ry="1.869"/>
								<path style="fill:#D66C54;" d="M109.156,125.473c-0.023,0-0.047-0.001-0.071-0.002c-1.479-0.047-2.226-0.771-2.581-1.319
									c-0.188-0.29-0.034-0.679,0.3-0.77l0,0c0.218-0.06,0.443,0.032,0.568,0.219c0.224,0.336,0.721,0.81,1.746,0.842
									c1.136,0.036,1.871-0.538,2.227-0.912c0.165-0.173,0.43-0.2,0.633-0.075l0.001,0c0.274,0.169,0.332,0.55,0.11,0.784
									C111.6,124.756,110.636,125.496,109.156,125.473z"/>
							</g>
							<path style="fill:#D66C54;" d="M109.972,116.009c0,0-2.77-0.236-2.444,2.26s3.076,1.555,3.076,1.555s0.419-0.329,0.114-0.685
								c-0.305-0.356-2.284,0.459-2.418-0.939c-0.133-1.398,1.662-1.226,1.897-1.482
								C110.432,116.462,109.972,116.009,109.972,116.009z"/>
						</g>
					</g>
					<g>
						<path style="fill:#3A2039;" d="M132.631,91.567c-3.425-6.121-5.975-4.299-5.975-4.299s-3.619-11.489-10.906-9.74
							c-3.044,0.73-4.679,1.595-5.564,2.356c-0.77-0.834-2.412-1.854-5.919-2.695c-7.287-1.749-10.906,9.74-10.906,9.74
							s-2.55-1.822-5.975,4.299c-3.425,6.121,0.583,11.295,0.583,11.295c-2.125,3.29-0.832,5.419,0.905,6.952
							c0.041-0.19,0.084-0.377,0.14-0.548c0.432-1.318,1.012-1.715,1.557-1.72c0.626-0.006,1.204,0.509,1.455,0.769
							c0.001,0.001,0.003,0.003,0.004,0.004c0.04,0.041,0.071,0.076,0.093,0.101c0.001,0.001,0.002,0.002,0.002,0.002
							c0.021,0.024,0.033,0.039,0.033,0.039s0.644,6.571,1.324,6.765s1.749,0,2.235-0.583s-0.927-6.121,0.434-9.716
							c1.36-3.595,6.064-7.033,9.865-5.582c6.482,2.473,8.305,0.171,10.59,0c3.894-0.292,6.568,1.798,7.515,5.368
							c0.947,3.571-1.248,7.982-0.228,8.57c1.02,0.587,1.797,0.63,2.283,0.266c0.486-0.364,1.358-3.559,1.462-4.538
							c0.002-0.021,0.008-0.067,0.014-0.109c-0.008,0.068-0.014,0.109-0.014,0.109s0.028-0.021,0.06-0.044
							c0.007-0.005,0.016-0.011,0.024-0.016c0.094-0.065,0.262-0.17,0.467-0.259c0.014-0.006,0.028-0.012,0.042-0.018
							c0.105-0.043,0.218-0.083,0.336-0.108c0.178-0.038,0.365-0.048,0.546-0.003c0.611,0.154,1.229,0.745,1.399,2.086
							c0.1-0.064,0.2-0.132,0.298-0.212c1.895-1.552,3.498-3.738,1.239-7.235C132.048,102.862,136.056,97.688,132.631,91.567z"/>
						<path style="fill:#3A2039;" d="M125.716,119.813c-0.691-0.417-0.707,3.109-5.047,7.099c1.499-0.506,2.77-1.271,3.572-2.403
							c1.114-1.572,1.951-3.088,2.606-4.535C126.412,120.101,126.025,119.999,125.716,119.813z"/>
						<path style="fill:#3A2039;" d="M92.308,119.69c-0.002,0-0.004-0.001-0.006-0.002c0.639,1.372,1.439,2.801,2.488,4.282
							c0.731,1.031,1.852,1.757,3.178,2.261c-2.711-3.014-3.74-6.172-4.257-6.91C93.663,119.25,92.524,119.713,92.308,119.69z"/>
					</g>
				</g>
			</g>
			<g>
				<g>
					<path style="fill:#1D2230;" d="M139.071,220.976c0,0-43.726,6.356-55.579,4.219l-8.534,43.29
						c-0.175,0.861-0.345,1.72-0.508,2.576l-0.043,0.219l0.001,0c-0.659,3.474-1.213,6.88-1.593,10.058
						c-2.332,19.529-2.509,36.11-3.675,40.243s-7.87,25.993-8.453,33.28s-4.955,47.768-5.829,49.534
						c-0.874,1.766,12.679,2.932,12.679,2.932s6.85-30.022,12.096-42.264c5.247-12.242,4.955-27.107,8.453-39.641
						c2.62-9.388,12.108-39.706,17.318-58.743l4.08,0.029c1.545,17.423,4.111,46.856,4.908,59.006
						c1.166,17.78-0.291,25.358,0,33.811c0.292,8.453,4.924,31.912,4.632,54.647c0,0,4.514,0.587,9.164-0.724
						c3.92-1.105,3.92-1.105,3.92-1.105s1.327-28.14,3.076-50.875s-0.34-29.196,0-35.026c0.247-4.236,2.241-28.667,2.975-55.162
						l0.001,0l0-0.058c0.245-8.877,0.349-17.981,0.198-26.637l0.071-9.618L139.071,220.976z"/>
					<g>
						<path style="fill:#1D2230;" d="M43.973,426.915c0,0-0.229,4.164,0,5.565s3.317,2.668,7.263,2.879
							c3.946,0.211,9.604,0.582,11.152-0.739c3.217-2.744,2.648-6.097,4.032-8.28c2.186-3.449,2.291-2.066,2.129-8.111
							C68.387,412.183,71.794,428.815,43.973,426.915z"/>
						<path style="fill:#3A2039;" d="M54.517,405.54c0,0-0.393,8.308-5.312,13.891s-5.833,6.052-4.918,9.758
							c0.915,3.706,18.415,5.019,19.902,0c1.487-5.019,5.415-7.619,4.096-13.395c-1.712-7.495-1.465-9.075-1.465-9.075
							S62.016,399.965,54.517,405.54z"/>
						<path style="fill:#775177;" d="M56.32,407.793c0,0,3.666-2.339,7.098,0c0,0,1.172,1.952-0.886,2.585c0,0-4.171-0.352-5.717,0
							C55.268,410.731,55.528,408.195,56.32,407.793"/>
						<path style="fill:#775177;" d="M54.419,412.341c0,0,3.862-1.801,7.05,1.012c0,0,0.981,2.106-1.124,2.442
							c0,0-4.11-0.944-5.679-0.815C53.097,415.108,53.595,412.627,54.419,412.341"/>
					</g>
					<g>
						<path style="fill:#1D2230;" d="M141.888,431.212c0,0,0.044,4.17-0.248,5.56c-0.291,1.389-3.433,2.517-7.385,2.552
							c-3.952,0.035-9.62,0.153-11.108-1.235c-3.091-2.885-2.374-6.209-3.659-8.452c-2.03-3.543-2.197-2.166-1.766-8.198
							C118.154,415.407,114.009,431.871,141.888,431.212z"/>
						<path style="fill:#3A2039;" d="M132.306,409.389c0,0,0.023,8.318,4.687,14.114c4.665,5.797,5.558,6.305,4.479,9.967
							c-1.079,3.662-18.62,4.194-19.882-0.887c-1.262-5.08-5.07-7.853-3.495-13.565c2.044-7.412,1.868-9,1.868-9
							S125.063,403.484,132.306,409.389z"/>
						<path style="fill:#775177;" d="M130.405,411.559c0,0-3.558-2.5-7.09-0.316c0,0-1.258,1.898,0.77,2.622
							c0,0,4.183-0.166,5.711,0.255C131.325,414.54,131.178,411.996,130.405,411.559"/>
						<path style="fill:#775177;" d="M132.102,416.187c0,0-3.778-1.971-7.088,0.697c0,0-1.073,2.06,1.014,2.489
							c0,0,4.148-0.76,5.709-0.562C133.298,419.01,132.912,416.509,132.102,416.187"/>
					</g>
				</g>
				<g>
					<g>
						<path style="fill:#E26F60;" d="M152.824,265.803c0,0,1.051,0.189,1.259,1.766s-0.052,3.013,0,4.636s0.884,4.126,0.884,4.126
							s4.265-8.159,3.329-10.153C157.36,264.184,153.23,264.037,152.824,265.803z"/>
						<path style="fill:#F97F67;" d="M159.478,275.959c0,0-1.234,5.98-0.844,7.232c0.39,1.252-1.326,1.46-2.497,0
							c-1.17-1.46-2.106-6.547-1.014-10.778c1.092-4.232-0.484-6.884-0.484-6.884S159.62,266.015,159.478,275.959z"/>
						<path style="fill:#F7A180;" d="M153.61,251.786c0,0-4.552,5.257-4.502,9.039c0.049,3.782,0.281,4.757,0.02,7.01
							c-0.261,2.253-0.514,4.714-0.732,6.007c-0.142,0.839,0.266,1.845,2.04,0.586c1.774-1.26,1.859-4.348,2.065-6.164
							c0.206-1.816,1.679-2.663,2.53-3.109C155.881,264.71,161.3,247.796,153.61,251.786z"/>
						<path style="fill:#F7A180;" d="M153.251,265.668c0,0,3.485,1.02,3.355,4.52c-0.103,2.783-0.312,6.258-0.858,7.441
							c-0.546,1.182-2.887,6.258-1.56,7.858c1.326,1.599,1.924,0.325,2.028-0.487c0.104-0.811,2.78-7.649,3.263-8.484
							c0.482-0.834,1.574-6.119,2.407-7.325c0.832-1.205,0.208-6.166,0-10.523c-0.208-4.358-0.392-6.907-2.407-7.232
							C157.464,251.111,148.844,259.429,153.251,265.668z"/>
						<polygon style="fill:#F7A180;" points="161.434,253.862 160.766,246.128 149.506,247.101 152.824,253.652 						"/>
					</g>
					<g>
						<path style="fill:#E59A85;" d="M67.977,122.619c0,0,2.966-7.382,4.731-13.098c1.766-5.715,3.642-4.539,4.083-3.922
							c0.441,0.616-3.059,13.727-4.383,17.145c-1.324,3.418-2.293,4.428-2.293,4.428L67.977,122.619z"/>
						<path style="fill:#E59A85;" d="M74.309,125.664c0,0,3.812-6.917,7.092-11.853c3.28-4.936,1.217-5.688,0.471-5.654
							s-8.137,10.826-9.932,13.99c-1.795,3.164-2.441,4.651-2.441,4.651L74.309,125.664z"/>
						<path style="fill:#E59A85;" d="M76.386,121.842c0,0-1.286,1.314-1.165,3.754c0.121,2.439-4.595-0.822-4.595-0.822l-2.4-0.944
							v-3.562L76.386,121.842z"/>
						<path style="fill:#E59A85;" d="M62.901,121.528c0,0-3.247,5.785-3.415,8.77c-0.168,2.985-0.616,8.583-0.616,8.583l7.333,2.295
							c0,0,8.468-5.881,9.328-7.447c0.86-1.566-0.766-6.1-2.584-6.996C71.13,125.838,62.901,121.528,62.901,121.528z"/>
						<path style="fill:#E59A85;" d="M64.636,126.398c0,0-2.239-3.751-2.183-5.15c0.056-1.399,2.854-2.463,3.75-1.679
							s1.269,6.505,0.84,7.109C66.615,127.282,65.248,127.485,64.636,126.398z"/>
						<path style="fill:#F4B39D;" d="M64.825,126.253c0,0-2.239-3.751-2.183-5.15c0.056-1.399,2.854-2.463,3.75-1.679
							c0.896,0.784,1.269,6.505,0.84,7.109S65.437,127.34,64.825,126.253z"/>
						<path style="fill:#F4B39D;" d="M66.204,120.072c0,0-0.037,7.221,0.597,7.557c0.634,0.336,2.65,0.84,3.041-0.728
							c0.392-1.567,0.672-8.061,0-8.285C69.17,118.393,66.186,118.002,66.204,120.072z"/>
						<path style="fill:#F4B39D;" d="M68.443,124.383c0,0-0.728,2.463,1.791,3.359s1.951,0.401,2.001,0.756
							c0.168,1.176-1.345,1.26-3.472,2.043c-2.127,0.784-3.232,5.57-2.56,7.025c0.672,1.455,3.566,0.14,6.346-1.539
							c2.779-1.679,3.388-2.534,3.236-3.191c-0.401-1.735-0.038-5.829-0.233-6.647c-0.434-1.819-4.982-1.861-5.934-2.253
							C68.667,123.543,68.443,124.383,68.443,124.383z"/>
						<path style="fill:#E59A85;" d="M68.813,123.913c0,0-1.378,3.072,1.421,3.828C70.234,127.741,66.777,127.432,68.813,123.913z"
							/>
						<path style="fill:#E59A85;" d="M67.032,127.389c-0.634-0.336-0.597-7.557-0.597-7.557c-0.003-0.384,0.098-0.683,0.267-0.915
							c-0.305,0.252-0.503,0.62-0.499,1.155c0,0-0.037,7.221,0.597,7.557c0.552,0.292,2.151,0.711,2.814-0.22
							C68.866,128.012,67.528,127.652,67.032,127.389z"/>
					</g>
					<g>
						<path style="fill:none;" d="M100.945,153.996l0.054-0.288c-0.073-0.039-0.144-0.079-0.216-0.119
							C100.836,153.727,100.89,153.862,100.945,153.996z"/>
						<path style="fill:#F14052;" d="M79.866,178.654c0.013-0.004,0.024-0.006,0.037-0.01c-0.006,0.002-0.012,0.002-0.018,0.004
							C79.879,178.649,79.871,178.652,79.866,178.654z"/>
						<path style="fill:#F14052;" d="M52.839,188.444c3.212-2.889,10.251-22.058,12.523-36.312c0.575-3.607,0.841-6.892,0.665-9.525
							c-0.625-0.116-7.027-1.406-8.413-5.841c-2.395,2.81-7.653,9.319-10.59,15.561c-4.774,10.144-8.181,25.165-5.771,32.333
							c0.013,0.04,0.029,0.073,0.043,0.113C43.719,191.826,48.632,192.229,52.839,188.444z"/>
						<path style="fill:#DD314B;" d="M60.091,173.706c-1.267,2.955-2.161,4.942-2.161,4.942
							C58.716,177.136,59.435,175.46,60.091,173.706z"/>
						<path style="fill:#DD314B;" d="M68.569,149.646C68.569,149.646,68.569,149.645,68.569,149.646l-0.059,0.045l-3.139,2.434
							l-0.006,0.005v0c0,0.004-1.677,11.961-5.274,21.576C63.088,166.717,68.183,154.279,68.569,149.646z"/>
						<path style="fill:#DD314B;" d="M82.331,172.688c-1.895,0-20.03,12.784-20.03,12.784l0.001,0
							c0.026-0.011,15.149-6.051,17.564-6.818c0.005-0.002,0.013-0.005,0.019-0.006c0.006-0.002,0.012-0.002,0.018-0.004
							c2.34-0.687,1.519,8.739,1.519,8.739s0.051-0.266,0.132-0.716C82.086,183.729,83.973,172.688,82.331,172.688z"/>
						<path style="fill:#F14052;" d="M159.002,194.354c-0.003-0.019-0.007-0.036-0.01-0.055
							c-0.294-11.971-8.343-40.937-11.954-45.804c-3.285-4.427-14.244-6.956-21.292-9.22c0.165,7.603-5.679,17.898-18.945,16.216
							c-2.282-0.289-4.192-0.928-5.803-1.784l-0.054,0.288c-0.055-0.133-0.109-0.269-0.162-0.406
							c-7.917-4.38-8.243-14.18-8.243-14.18l0.042-0.014c-3.114,0.965-7.084,2.059-11.201,2.83
							c-2.808,0.525-7.552,3.464-12.812,7.421c-0.386,4.633-5.481,17.071-8.478,24.06c-0.656,1.754-1.376,3.43-2.161,4.942
							c0,0,0.894-1.987,2.161-4.942c3.597-9.615,5.274-21.573,5.274-21.576c-0.001,0.001-0.002,0.002-0.003,0.003
							c-2.272,14.254-9.312,33.423-12.523,36.312c-4.207,3.785-9.12,3.382-11.544-3.671c1.209,4.217,4.073,7.558,8.099,6.048
							c2.61-0.979,7.601-3.116,12.908-5.35l-0.001,0c0,0,18.135-12.784,20.03-12.784c1.643,0-0.245,11.041-0.776,13.979
							c-1.59,13.779-5.968,41.22-7.147,54.4c0,0,12.684,6.227,35.613,5.061c22.929-1.166,31.78-2.028,31.78-2.028
							s-0.49-23.443-2.17-43.356c-0.832-5.262-1.849-11.76-2.673-17.211c-1.087-7.185-1.837-12.546-1.384-10.845
							c1.166,4.372,5.441,25.553,5.441,25.553l0.09,6.106c1.303,12.252,4.257,36.433,8.051,45.052
							c1.68-2.352,11.686-3.271,11.686-3.271l0,0C160.853,238.046,160.783,206.825,159.002,194.354z"/>
						<path style="fill:#EF546B;" d="M160.84,246.128L160.84,246.128c0,0-10.006,0.919-11.686,3.271c0,0,0,0,0,0
							c0,0,0.271,3.518,1.008,3.809c0.738,0.291,11.194-1.312,11.358-2.113C161.685,250.293,160.841,246.13,160.84,246.128z"/>
						<path style="fill:#DD314B;" d="M135.573,172.688c-0.454-1.701,0.297,3.66,1.384,10.845c0.824,5.451,1.842,11.949,2.673,17.211
							c0.889,5.625,1.565,9.837,1.565,9.837l-0.092-6.234l-0.09-6.106C141.014,198.241,136.739,177.06,135.573,172.688z"/>
						<path style="fill:#EF546B;" d="M100.783,153.59c0.072,0.04,0.143,0.08,0.216,0.119c1.611,0.856,3.521,1.494,5.803,1.784
							c13.265,1.682,19.109-8.613,18.945-16.216c-0.007-0.305-0.019-0.606-0.045-0.901l-5.512-1.522c0,0-2.325,12.522-11.046,11.934
							c-8.721-0.588-10.345-11.513-10.345-11.513l-6.217,2.122l-0.042,0.014C92.54,139.41,92.866,149.21,100.783,153.59z"/>
						<path style="fill:#DD314B;" d="M66.027,142.607c0.032,0.006,0.062,0.011,0.062,0.011l1.376-2.43
							c-4.291-2.04-8.256-6.058-8.256-6.058l-1.596,2.635c0,0,0,0,0,0C59,141.201,65.402,142.491,66.027,142.607z"/>
					</g>
				</g>
			</g>
		</g>
		<g>
			<g>
				<g>
					<g>
						<path style="fill:#F7A180;" d="M197.857,162.544l19.844-6.71l17.226,11.016l-8.782,17.869c0,0-27.256,12.246-19.944-0.729
							c0.105-0.187-6.94-3.27-6.94-3.27L197.857,162.544z"/>
						<path style="fill:#F7A180;" d="M211.201,148.685c0,0-1.721,9.373-1.599,12.109c0.42,9.417,15.496,5.406,15.365,2.599
							c-0.042-0.893,0.339-8.794,0.342-9.794c0.013-4.143,0.013-4.143,0.013-4.143L211.201,148.685z"/>
					</g>
					<path style="fill:#DB836E;" d="M210.953,150.084l-0.353,1.989c0,0,6.395,5.925,14.682,0.713l0.022-2.77L210.953,150.084z"/>
				</g>
				<g>
					<g>
						<g>
							<g>
								<path style="fill:#F7A180;" d="M214.463,152.126c0,0,6.23,1.882,12.458-1.803c6.227-3.685,6.643-7.933,7.333-7.399
									c0.852,0.659,2.486,0.681,4.614-4.307c1.9-4.454,1.012-6.171-0.007-6.558c-0.652-0.247-1.482,0.267-1.482,0.267
									s5.878-22.437-11.323-26.328c-21.408-4.843-23.051,15.121-23.055,21.783c0,0-1.703-2.692-3.143,0.427
									c-1.44,3.119-0.406,10.271,1.981,10.82c0.207,0.048,1.365-0.273,1.404-0.199
									C203.957,140.153,205.285,148.497,214.463,152.126z"/>
							</g>
							<g>
								<path style="fill:#E26464;" d="M202.318,131.878c0,0-0.937,0.736-0.569,1.89c0.368,1.154-0.215,1.347-0.735,0.7
									c-0.52-0.648-0.592-3.895,0.06-4.48C201.728,129.403,202.532,131.17,202.318,131.878z"/>
								<path style="fill:#E26464;" d="M237.166,136.067c0,0,0.577,1.042-0.21,1.963c-0.787,0.921-0.325,1.325,0.406,0.93
									c0.731-0.395,2.058-3.36,1.684-4.152C238.671,134.016,237.245,135.332,237.166,136.067z"/>
							</g>
						</g>
						<g>
							<g>
								<g>
									<path style="fill:#E26464;" d="M217.755,145.704c-0.022-0.003-0.045-0.006-0.069-0.01c-1.431-0.213-2.074-1-2.356-1.572
										c-0.15-0.303,0.044-0.663,0.378-0.714l0,0c0.218-0.033,0.426,0.081,0.527,0.277c0.18,0.351,0.609,0.868,1.6,1.015
										c1.098,0.163,1.877-0.311,2.265-0.633c0.179-0.149,0.44-0.146,0.623-0.001l0.001,0.001c0.247,0.195,0.26,0.572,0.018,0.773
										C220.208,145.284,219.189,145.893,217.755,145.704z"/>
								</g>
								<g>
									
										<ellipse transform="matrix(0.2072 -0.9783 0.9783 0.2072 44.221 335.3079)" style="fill:#E26464;" cx="228.986" cy="140.371" rx="1.984" ry="2.116"/>
									<g>
										<path style="fill:#2D1816;" d="M227.841,127.911c0,0,2.54,0.222,2.551,1.642c0.011,1.495-0.97-0.305-3.005-0.2
											c-0.91,0.047-1.287-0.098-1.212-0.631C226.309,127.774,227.697,127.908,227.841,127.911z"/>
										<g>
											
												<ellipse transform="matrix(0.2072 -0.9783 0.9783 0.2072 48.9441 328.2924)" style="fill:#2D1816;" cx="227.019" cy="133.949" rx="2.248" ry="1.827"/>
											<g>
												<path style="fill:#2D1816;" d="M228.081,132.703c0,0,1.174-0.562,1.03-0.925c-0.145-0.364,0.796,0.226,0.298,0.612
													C228.911,132.775,228.259,133.117,228.081,132.703z"/>
												<path style="fill:#2D1816;" d="M228.477,132.908c0,0,1.256-0.157,1.321-0.569c0.065-0.413,0.543,0.5-0.064,0.713
													C229.126,133.266,228.414,133.382,228.477,132.908z"/>
												<path style="fill:#2D1816;" d="M228.706,133.383c0,0,1.185,0.139,1.388-0.266c0.204-0.405,0.313,0.638-0.308,0.712
													C229.165,133.902,228.484,133.852,228.706,133.383z"/>
											</g>
										</g>
									</g>
								</g>
								<g>
									
										<ellipse transform="matrix(0.122 -0.9925 0.9925 0.122 47.5289 328.5955)" style="fill:#E26464;" cx="209.49" cy="137.434" rx="1.984" ry="2.116"/>
									<g>
										<path style="fill:#2D1816;" d="M214.393,126.135c0,0-2.51-0.445-2.889,0.924c-0.399,1.441,1.016-0.043,2.954,0.587
											c0.866,0.281,1.268,0.24,1.334-0.295C215.908,126.4,214.532,126.169,214.393,126.135z"/>
										<g>
											
												<ellipse transform="matrix(0.122 -0.9925 0.9925 0.122 56.2191 327.252)" style="fill:#2D1816;" cx="213.076" cy="131.85" rx="2.248" ry="1.827"/>
											<g>
												<path style="fill:#2D1816;" d="M212.524,130.278c0,0-0.988-0.847-0.754-1.161c0.234-0.314-0.828,0.012-0.447,0.513
													S212.244,130.63,212.524,130.278z"/>
												<path style="fill:#2D1816;" d="M212.089,130.372c0,0-1.172-0.477-1.128-0.893c0.044-0.416-0.654,0.342-0.123,0.706
													C211.369,130.549,212.026,130.847,212.089,130.372z"/>
												<path style="fill:#2D1816;" d="M211.744,130.772c0,0-1.18-0.173-1.272-0.617c-0.091-0.444-0.468,0.535,0.113,0.767
													C211.166,131.154,211.837,131.282,211.744,130.772z"/>
											</g>
										</g>
									</g>
								</g>
							</g>
							<path style="fill:#E26464;" d="M219.572,135.429c0,0-1.931-1.113-2.452,1.287s1.753,2.424,1.753,2.424
								s0.403-0.167,0.29-0.593s-1.791-0.317-1.464-1.645c0.327-1.328,1.573-0.589,1.821-0.748
								C219.767,135.993,219.572,135.429,219.572,135.429z"/>
						</g>
					</g>
					<g>
						<g>
							<path style="fill:#462447;" d="M239.983,118.512c-1.327-5.406-6.331-12.483-10.727-13.263
								c-0.802-0.142-1.722-0.286-2.707-0.422c-0.221,0.246-0.573,0.393-1.253,0.422c-1.032,0.044-2.641-0.877-2.664-0.891
								c-0.003,0-0.005-0.001-0.008-0.001c-2.329,1.072-4.055,0.312-4.055,0.312s-0.245-0.253-0.476-0.599
								c-1.791-0.054-3.38-0.007-4.476,0.197c-3.344,0.624-9.588,5.874-10.714,11.02c-1.126,5.146-0.272,12.613-0.272,12.613
								s0.681,5,0.936,5.538c0.255,0.537,1.56,0.413,2.651-1.162c1.092-1.576-1.138-9.399,4.792-11.998s10.595,0.728,10.595,0.728
								s6.291-1.56,10.293,0.624s0.832,14.725,1.04,15.524s1.456,0.903,2.495-1.177c1.04-2.079,1.946-3.652,1.946-3.652
								S241.31,123.919,239.983,118.512z"/>
							<path style="fill:#462447;" d="M227.115,103.199c0.884-0.605,3.683-2.293,3.577-3.705c-0.199-2.634-4.765-6.505-6.361-6.699
								c-1.596-0.194-6.631-0.609-9.539,3.873c-1.237,1.907,2.857,6.093,2.857,6.093c0.023,0.041,0.053,0.07,0.076,0.11
								c0.015-0.079,0.029-0.158,0.07-0.231C218.243,101.842,222.566,101.216,227.115,103.199z"/>
							<path style="fill:#D6455D;" d="M222.623,104.358c0.003,0,0.005,0.001,0.008,0.001c0.023,0.013,1.632,0.935,2.664,0.891
								c0.68-0.029,1.032-0.176,1.253-0.422c0.117-0.13,0.198-0.286,0.269-0.471c0-0.001,0-0.002,0-0.002
								c0.276-0.504,0.298-1.155,0.298-1.155c-4.549-1.983-8.872-1.358-9.32-0.559c-0.041,0.073-0.054,0.152-0.07,0.231
								c-0.077,0.398,0.13,0.846,0.367,1.2c0.231,0.345,0.476,0.599,0.476,0.599S220.294,105.43,222.623,104.358z"/>
						</g>
						<g>
							<path style="fill:#462447;" d="M231.761,163.7c0,0,6.836,2.694,11.829,6.154c0-0.002,0.002-0.003,0.002-0.005
								c0.505-1.73-3.202-17.401-5.926-28.834c-1.542,2.55-2.73,2.438-3.413,1.909c-0.69-0.534-1.105,3.714-7.333,7.399
								c-0.536,0.317-1.071,0.58-1.603,0.819c-0.002,0.59-0.004,1.381-0.008,2.457c-0.002,0.655-0.166,4.263-0.267,6.93l6.278,4.015
								C231.611,164.015,231.761,163.7,231.761,163.7z"/>
							<path style="fill:#462447;" d="M201.356,160.201c0,0,0.059,0.409,0.194,1.095l8.168-2.762c0.19-1.933,0.569-4.44,0.898-6.448
								c-0.008-0.008-0.015-0.014-0.015-0.014l0.323-1.821c-5.997-4.062-7.071-10.293-7.681-11.423
								c-0.04-0.074-1.197,0.247-1.404,0.199c-1.233-0.283-2.101-2.331-2.457-4.672c-5.158,8.74-12.395,22.074-12.477,28.23
								C189.399,161.755,201.356,160.201,201.356,160.201z"/>
						</g>
					</g>
				</g>
			</g>
			<g>
				<g>
					<g>
						<g>
							<g>
								<path style="fill:#F7A180;" d="M156.508,157.746c0,0,2.661-4.777,3.198-6.494c0.537-1.716,1.382-2.816,1.977-4.569
									c0.595-1.753,2.545-3.348,4.752-3.445c2.207-0.097,0.961-2.713-1.487-2.869s-4.537,0.812-4.975,2.054
									s-1.809,2.471-2.158,1.598c-0.349-0.874-0.669-9.339-1.232-13.44c-0.563-4.1-1.111-4.969-2.352-4.753
									s-1.369,0.783-1.167,2.964c0.202,2.181,0.742,9.455,0.614,10.022s-2.131-10.564-2.933-12.285
									c-0.803-1.721-2.001-1.694-2.664-1.397c-0.663,0.297-0.03,2.328,0.319,4.741s1.951,9.381,1.834,9.901
									c-0.118,0.52-0.551-1.627-1.466-4.665s-1.814-4.992-2.65-5.74c-0.837-0.748-1.628-0.23-1.996,0.245
									c-0.368,0.475,1.12,4.176,1.616,5.442c0.496,1.267,1.5,5.666,1.43,6.469s-0.565,0.357-0.783-0.326
									c-0.218-0.683-1.326-3.69-2.257-5.502s-0.947-1.741-1.648-1.937c-0.701-0.196-1.36,0.251-1.281,1.051
									c0.08,0.8,2.877,6.387,3.206,8.883c0.33,2.496,0.736,6.3,1.089,7.373c0.353,1.073,3.329,4.825,3.772,5.72
									C149.709,157.684,155.944,159.621,156.508,157.746z"/>
								<path style="fill:#DB836E;" d="M153.488,149.102c0,0,2.314-4.741,1.468-4.734s-3.315,2.578-4.423,2.427
									C149.425,146.643,151.215,149.928,153.488,149.102z"/>
							</g>
						</g>
						<path style="fill:#F7A180;" d="M148.176,152.609c0,0-2.963,31.299-2.183,39.588c0.78,8.289,2.495,13.227,5.77,13.019
							c3.275-0.208,6.55-14.087,5.926-20.637s-1.715-28.227-1.715-29.942S148.176,152.609,148.176,152.609z"/>
						<path style="fill:#F7A180;" d="M172.972,192.197c0,0-0.111-0.348-0.329-0.913c-0.985-2.553-4.186-9.602-9.548-9.772
							c0,0-0.864,0.727-2.155,1.848c-3.606,3.132-10.573,9.371-11.569,11.668c-1.352,3.119-2.599,10.085,2.391,10.189
							c2.964,0.062,9.888-4.542,15.024-8.292c2.937-2.144,5.284-4.006,5.975-4.558C172.896,192.258,172.972,192.197,172.972,192.197
							z"/>
					</g>
					<g>
						<g>
							<g>
								<path style="fill:#F7A180;" d="M280.774,203.519c0,0-1.072-5.362-1.059-7.16c0.014-1.798-0.454-3.104-0.485-4.955
									c-0.03-1.851-1.399-3.966-3.471-4.733s-0.085-2.877,2.293-2.277s4.071,2.16,4.109,3.477s0.967,2.906,1.566,2.181
									c0.599-0.725,3.494-8.687,5.283-12.419c1.79-3.732,2.578-4.392,3.693-3.806c1.115,0.585,1.064,1.164,0.204,3.179
									c-0.859,2.015-3.599,8.775-3.65,9.354c-0.051,0.579,5.259-9.406,6.55-10.799c1.291-1.393,2.423-1.001,2.964-0.515
									c0.541,0.486-0.684,2.225-1.753,4.416s-4.727,8.335-4.774,8.866s1.022-1.381,2.822-3.993c1.8-2.612,3.254-4.198,4.279-4.654
									c1.025-0.456,1.62,0.279,1.825,0.844c0.205,0.565-2.344,3.633-3.203,4.687c-0.859,1.055-3.161,4.936-3.34,5.722
									c-0.179,0.787,0.429,0.512,0.845-0.071s2.391-3.107,3.832-4.548c1.441-1.441,1.434-1.368,2.161-1.34
									c0.727,0.028,1.219,0.655,0.898,1.393c-0.321,0.738-4.692,5.201-5.769,7.476s-2.627,5.773-3.292,6.687
									s-4.645,3.576-5.341,4.292C287.266,205.539,280.737,205.476,280.774,203.519z"/>
								<path style="fill:#DB836E;" d="M286.293,196.212c0,0-0.753-5.222,0.05-4.956c0.803,0.266,2.367,3.468,3.469,3.663
									C290.913,195.114,288.204,197.695,286.293,196.212z"/>
							</g>
						</g>
						<g>
							<path style="fill:#F7A180;" d="M288.02,204.793c0,0-25.685,18.131-33.264,21.575c-7.579,3.444-10.493,3.996-11.941,1.052
								c-1.448-2.945,1.063-11.27,11.251-15.758c6.021-2.652,26.83-11.773,28.318-12.626
								C283.873,198.182,288.02,204.793,288.02,204.793z"/>
							<path style="fill:#F7A180;" d="M249.143,202.543c-5.311-3.839-14.348,2.42-14.348,2.42s0.896,3.775,2.236,8.306
								c0.297,1.004,0.615,2.043,0.951,3.088c1.663,5.18,3.742,10.468,5.642,11.873c4.013,2.968,7.283-3.308,8.12-6.602
								c0.417-1.64-0.226-6.378-0.977-10.722c-0.538-3.116-1.13-6.022-1.429-7.445C249.217,202.884,249.143,202.543,249.143,202.543
								z"/>
						</g>
					</g>
					<g>
						<g>
							<path style="fill:#F7A180;" d="M212.914,208.645c-8.636-2.488-18.629-3.429-18.629-3.429s0.302,3.948-1.274,9.121
								c-0.625,2.053-1.549,4.295-2.907,6.566c-0.065,0.108-0.119,0.215-0.186,0.324c-4.99,8.109-9.149,11.852-9.149,11.852
								s9.773,8.525,25.992,8.317s21.417-3.327,21.417-3.327s-1.258-5.033-2.12-11.08c-0.449-3.151-0.791-6.578-0.791-9.713
								C225.267,213.323,219.483,210.537,212.914,208.645z"/>
							<path style="fill:#C17057;" d="M207.662,223.722c0,0-1.333,2.83-0.917,3.332c0.417,0.502,0.917-3.746,0.917-3.746"/>
						</g>
						<g>
							<g>
								<g>
									<path style="fill:#BC354C;" d="M166.787,196.924c2.754,3.386,5.25,4.341,5.25,4.341s1.109-4.268,0.725-8.899
										C172.071,192.918,169.724,194.78,166.787,196.924z"/>
									<path style="fill:#BC354C;" d="M172.643,191.283c-0.371-2.734-1.322-5.488-3.385-7.477
										c-5.855-5.644-8.034-3.958-8.034-3.958s-0.553,1.02-0.284,3.511c1.291-1.121,2.155-1.848,2.155-1.848
										C168.457,181.681,171.658,188.731,172.643,191.283z"/>
								</g>
								<g>
									<path style="fill:#BC354C;" d="M250.767,210.907c2.219-1.58,4.086-3.526,5.015-5.899l-6.443-1.546
										C249.636,204.885,250.228,207.791,250.767,210.907z"/>
									<path style="fill:#BC354C;" d="M236.444,216.704c0,0,0.58-0.11,1.538-0.346c-0.336-1.045-0.654-2.085-0.951-3.088
										C236.647,214.338,236.425,215.482,236.444,216.704z"/>
								</g>
								<g>
									<path style="fill:#BC354C;" d="M231.765,224.189l-6.862-18.974l-11.989,3.429c6.569,1.892,12.353,4.679,12.353,8.631
										c0,3.134,0.342,6.561,0.791,9.713C231.051,226.109,231.765,224.189,231.765,224.189z"/>
									<path style="fill:#BC354C;" d="M185.25,216.556c0,0,0.675,2.003,4.855,4.346c1.357-2.271,2.281-4.513,2.907-6.566
										L185.25,216.556z"/>
								</g>
							</g>
							<g>
								<path style="fill:#D6455D;" d="M201.356,160.204c0,0,2.494,17.565,13.307,17.149c10.813-0.416,17.098-13.649,17.098-13.649
									s8.27,3.253,13.26,7.203c4.99,3.951,12.698,33.792,10.761,34.101c-14.659,2.339-18.09,11.696-19.338,11.696
									c-1.248,0-2.443-25.836-2.443-25.836s-0.572,33.355-2.235,33.321c-7.42-0.149-23.45-10.557-44.878-6.998
									c-1.159,0.192-2.167-0.798-1.972-1.956c1.101-6.538,4.118-24.325,4.795-26.863c0,0-17.441,14.968-17.674,12.892
									c-1.871-16.635-12.268-19.962-10.813-21.417c1.456-1.456,23.185-16.427,25.68-17.258S201.356,160.204,201.356,160.204z"/>
								<g>
									<path style="fill:#66223C;" d="M190.531,183.451c0,0,10.483-2.131,25.957,0c15.474,2.131,17.409,3.674,17.409,3.674
										l-0.019,9.251c0,0-8.388-3.932-21.215-5.335s-23.548-0.305-23.548-0.305L190.531,183.451z"/>
									<path style="fill:#66223C;" d="M186.616,205.241c0,0,39.119-0.878,46.657,8.902l-0.52,5.512c0,0-12.702-8.154-47.158-8.438
										L186.616,205.241z"/>
									<path style="fill:#66223C;" d="M231.761,163.703l-4.59,6.775l11.768,5.522l6.082-5.094
										C245.021,170.907,240.178,166.689,231.761,163.703z"/>
									<path style="fill:#66223C;" d="M170.88,172.897c0,0,6.8,6.777,10.962,21.998l6.003-4.939c0,0-4.446-16.146-9.567-22.064
										L170.88,172.897z"/>
									<path style="fill:#66223C;" d="M234.325,196.376c0,0,6.799-9.887,16.871-12.827l2.601,8.647
										c0,0-17.023,9.357-18.785,15.011L234.325,196.376z"/>
									<path style="fill:#66223C;" d="M201.356,160.204c-9.436,0.912-14.452,2.386-14.452,2.386l1.391,5.302l14.701-1.335
										L201.356,160.204z"/>
								</g>
							</g>
						</g>
					</g>
				</g>
				<g>
					<g>
						<path style="fill:#1D2230;" d="M185.292,227.053c0,0,12.822,8.832,20.515,9.248c7.694,0.416,22.371-2.703,22.371-2.703
							s2.703,12.58,3.327,16.323c0.624,3.743,1.248,9.565,1.248,9.565s-22.457-0.624-26.823,14.555l-8.525-2.911
							c0,0-3.314-16.635-11.43-17.882c-8.116-1.248-14.354-2.701-14.354-2.701S175.526,236.831,185.292,227.053z"/>
						<path style="fill:#1D2230;" d="M171.621,250.547c0,0-6.862,19.959-5.822,46.159c1.04,26.2,4.675,34.725,2.857,43.042
							c-1.818,8.317-3.072,13.516-2.965,37.428c0.107,23.912,1.563,38.26,1.563,38.26l10.189,2.287c0,0,3.483-29.319,6.602-41.95
							c3.119-12.632,1.559-23.548,2.651-30.254c1.092-6.706,10.916-46.733,10.709-74.388S178.69,247.223,171.621,250.547z"/>
						<path style="fill:#1D2230;" d="M205.93,274.041c0,0,13.516,37.428,16.427,49.696c2.911,12.268,5.614,13.932,8.317,24.536
							c2.703,10.605,6.654,26.407,11.644,37.428c4.99,11.02,12.268,33.477,12.268,33.477s9.149-0.416,9.773-5.406
							c0,0-5.198-31.606-7.07-45.121c-1.871-13.516-9.981-27.655-9.773-32.23c0.208-4.575-3.688-36.359-9.149-59.261
							c-5.929-24.864-9.357-26.823-9.357-26.823S203.85,250.129,205.93,274.041z"/>
					</g>
					<g>
						<g>
							<path style="fill:#B5C3C9;" d="M162.836,431.213c0,0,2.495-9.123,2.417-15.595c-0.078-6.472,12.086-4.367,13.88-1.949
								c1.793,2.417-1.014,8.967,0.702,15.985C181.549,436.671,162.758,435.111,162.836,431.213z"/>
							<g>
								<path style="fill:#CED7DC;" d="M174.512,417.996h-3.859c-0.743,0-1.345-0.602-1.345-1.345v-0.194
									c0-0.743,0.602-1.345,1.345-1.345h3.859c0.743,0,1.345,0.602,1.345,1.345v0.194
									C175.857,417.393,175.255,417.996,174.512,417.996z"/>
								<path style="fill:#CED7DC;" d="M174.083,423.181h-3.859c-0.743,0-1.345-0.602-1.345-1.345v-0.194
									c0-0.743,0.602-1.345,1.345-1.345h3.859c0.743,0,1.345,0.602,1.345,1.345v0.194
									C175.428,422.579,174.826,423.181,174.083,423.181z"/>
							</g>
						</g>
						<g>
							<path style="fill:#8D9BA0;" d="M160.392,438.838c0,0-2.807-9.196,3.951-11.191c6.758-1.994,15.173-1.994,17.203,2.216
								c2.031,4.21,0.881,10.526,0,11.08C180.666,441.497,162.888,444.045,160.392,438.838z"/>
							<path style="fill:#343851;" d="M159.847,435.614c0,0,0.065,3.747,0.571,4.566c0.507,0.819,4.683,1.615,10.828,1.873
								c6.145,0.258,10.252-0.418,10.875-1.406c0.624-0.988,0.559-4.678,0.559-4.678S169.49,438.949,159.847,435.614z"/>
						</g>
					</g>
					<g>
						<g>
							<path style="fill:#8D9BA0;" d="M253.242,415.111c0,0-2.814,13.217-2.398,16.544s5.406,2.353,13.516,7.206
								c8.109,4.854,17.674,2.358,18.714-2.216c1.04-4.575-2.079-9.565-8.733-10.293c-6.654-0.728-1.04,0-1.04,0
								s-7.278-5.302-7.901-13.62C264.775,404.415,253.78,412.46,253.242,415.111z"/>
							<path style="fill:#343851;" d="M250.822,430.094c0,0-1.123,5.615-0.603,6.343c0.52,0.728,7.44,2.12,11.881,5.063
								c4.442,2.943,12.863,4.086,17.022,1.799s4.147-3.223,4.147-3.223l-0.25-4.367c0,0-0.819,4.366-9.019,4.546
								c-9.152,0.201-13.488-3.506-17.543-6.521C252.403,430.719,250.822,430.094,250.822,430.094z"/>
						</g>
						<g>
							<path style="fill:#B5C3C9;" d="M254.674,413.03c0,0,3.088,7.238,4.279,11.659c1.456,5.406,13.931,5.926,14.347,1.663
								c0,0-4.888-3.633-6.265-7.696c-1.377-4.063-1.624-4.055-1.838-7.173C264.983,408.366,258.089,406.985,254.674,413.03z"/>
							<g>
								<path style="fill:#CED7DC;" d="M264.28,416.232l-3.78,0.774c-0.728,0.149-1.439-0.32-1.588-1.048l-0.039-0.19
									c-0.149-0.728,0.32-1.439,1.048-1.588l3.78-0.774c0.728-0.149,1.439,0.32,1.588,1.048l0.039,0.19
									C265.477,415.372,265.008,416.083,264.28,416.232z"/>
								<path style="fill:#CED7DC;" d="M266.538,421.69l-3.78,0.774c-0.728,0.149-1.439-0.32-1.588-1.048l-0.039-0.19
									c-0.149-0.728,0.32-1.439,1.048-1.588l3.78-0.774c0.728-0.149,1.439,0.32,1.588,1.048l0.039,0.19
									C267.736,420.83,267.266,421.541,266.538,421.69z"/>
							</g>
						</g>
					</g>
				</g>
			</g>
		</g>
		<g>
			<g>
				<g>
					<g>
						<path style="fill:#F7A180;" d="M342.975,291.574c-10.605-8.109-29.734-1.248-29.734,0c0,1.248,0,29.526,3.483,53.231
							c1.669,11.361-0.572,19.546,0.884,33.893c1.052,10.369,1.561,27.504,1.762,36.212c0.057,2.349-0.045,9.454-0.045,9.454
							l11.357,0.443l-1.014-5.354c-1.456-11.02,7.486-46.993,7.486-53.231s-1.456-23.496,0-33.269
							C338.608,323.18,342.975,291.574,342.975,291.574z"/>
						<g>
							<path style="fill:#3A2039;" d="M340.347,437.323c0,0,0.216,3.435,0,4.591c-0.216,1.156-3.129,2.201-6.852,2.375
								s-9.059,0.48-10.519-0.609c-3.034-2.264-2.225-5.263-3.803-6.83c-1.578-1.567-1.827-1.477-1.675-6.464
								C317.651,425.397,314.103,438.89,340.347,437.323z"/>
							<path style="fill:#882F4D;" d="M330.4,419.691c0,0,0.371,6.853,5.01,11.459c4.639,4.606,5.502,4.992,4.639,8.049
								s-17.371,4.14-18.773,0s-3.495-4.393-3.819-9.307c-0.324-4.914,1.337-9.229,1.337-9.229S323.327,415.091,330.4,419.691z"/>
							<path style="fill:#3A2039;" d="M328.903,418.846c0,0,0.655,6.16,2.813,8.65c2.158,2.49,1.537,3.835,0,4.79
								c-1.537,0.955-5.502,1.353-7.283-0.796c-1.78-2.149-5.539-11.634-3.943-13.14
								C322.086,416.844,327.588,417.054,328.903,418.846z"/>
							<path style="fill:#AA5375;" d="M328.7,421.549c0,0-3.458-1.93-6.695,0c0,0-1.106,1.61,0.836,2.133c0,0,3.935-0.29,5.393,0
								C329.693,423.972,329.447,421.88,328.7,421.549"/>
							<path style="fill:#AA5375;" d="M330.493,425.3c0,0-3.643-1.485-6.65,0.835c0,0-0.925,1.737,1.06,2.014
								c0,0,3.877-0.779,5.357-0.673C331.74,427.583,331.27,425.536,330.493,425.3"/>
							<path style="fill:#AA5375;" d="M332.379,429.74c0,0-3.643-1.485-6.65,0.835c0,0-0.925,1.737,1.06,2.014
								c0,0,3.877-0.779,5.357-0.673S333.156,429.976,332.379,429.74"/>
						</g>
					</g>
					<g>
						<path style="fill:#F7A180;" d="M276.946,291.984c0,0,5.191,31.481,6.901,41.212c1.71,9.731,0.706,27.022,0.869,33.258
							c0.163,6.236,9.548,42.848,8.381,53.902l10.761,2.189c0,0-0.357-29.75,0.723-44.13c1.08-14.38-1.151-22.479-0.002-33.905
							c3.463-34.431,2.564-52.149,2.091-53.304C300.972,277.279,287.335,283.6,276.946,291.984z"/>
						<g>
							<path style="fill:#3A2039;" d="M282.193,435.664c0,0-0.216,3.435,0,4.591s3.129,2.201,6.852,2.375s9.059,0.48,10.519-0.609
								c3.034-2.264,2.498-5.03,3.803-6.83c2.062-2.845,2.161-1.704,2.009-6.691C305.223,423.512,308.437,437.231,282.193,435.664z"
								/>
							<path style="fill:#882F4D;" d="M292.14,418.032c0,0-0.371,6.853-5.01,11.459c-4.639,4.606-5.502,4.992-4.639,8.049
								s17.371,4.14,18.773,0s5.108-6.285,3.863-11.05c-1.615-6.183-1.382-7.486-1.382-7.486S299.213,413.432,292.14,418.032z"/>
							<path style="fill:#3A2039;" d="M293.637,417.187c0,0-0.655,6.16-2.813,8.65c-2.158,2.49-1.537,3.835,0,4.79
								s5.502,1.353,7.283-0.796c1.78-2.149,5.539-11.634,3.943-13.14C300.454,415.185,294.952,415.396,293.637,417.187z"/>
							<path style="fill:#AA5375;" d="M293.84,419.891c0,0,3.458-1.93,6.695,0c0,0,1.106,1.61-0.836,2.133c0,0-3.935-0.29-5.393,0
								C292.847,422.314,293.093,420.222,293.84,419.891"/>
							<path style="fill:#AA5375;" d="M292.046,423.642c0,0,3.643-1.485,6.65,0.835c0,0,0.925,1.737-1.06,2.014
								c0,0-3.877-0.779-5.357-0.673S291.269,423.877,292.046,423.642"/>
							<path style="fill:#AA5375;" d="M290.161,428.081c0,0,3.643-1.485,6.65,0.835c0,0,0.925,1.737-1.06,2.014
								c0,0-3.877-0.779-5.357-0.673S289.384,428.317,290.161,428.081"/>
						</g>
					</g>
					<path style="fill:#3A2039;" d="M340.187,257.473L340.187,257.473c0,0-4.732-15.281-5.842-17.934
						c-1.009-2.412-2.557-6.172-4.072-9.864c-2.104,0.248-5.564,0.243-8.295,0.202c-1.256,0.044-2.365,0.036-3.125-0.059
						c-3.225-0.055-2.279-5.344-2.279-5.344l0.513-0.013c-0.127-1.265-0.217-2.711-0.274-4.307
						c-6.885,0.902-13.412,0.568-18.167,0.016c-0.142,1.815-0.325,3.45-0.548,4.849l0.208,0.005c0,0,0.946,5.289-2.279,5.344
						c-0.054,0.001-0.115,0.002-0.173,0.003c-0.734,0.084-1.766,0.094-2.938,0.055c-2.27,0.034-5.045,0.044-7.129-0.096
						c-2.145,5.481-4.034,11.047-4.777,13.263c-1.268,3.782-2.453,9.57-2.983,12.32h-0.078c-0.312,1.202-11.359,32.8-6.577,35.735
						c4.782,2.935,26.272,7.164,34.589,6.992s41.171-4.834,42.21-10.185C349.063,283.874,342.187,263.306,340.187,257.473z"/>
				</g>
				<g>
					<g>
						<path style="fill:#FFFFFF;" d="M318.256,163.89l-1.455-1.391c0,0-0.747,0.469-1.977,1.037
							c-3.301,1.524-10.101,3.753-15.452-0.434c-0.357-0.279-0.709-0.577-1.051-0.915c-0.494-0.488-0.922-0.908-1.297-1.274
							c-0.022,0.075-0.043,0.145-0.066,0.221l0.009-0.012c0,0-0.009,0.083-0.023,0.229c0.326,0.355,0.556,0.603,0.556,0.603
							l-0.684,0.933c-0.263,3.627-0.658,12.445,0.662,22.563c1.557,11.937,1.882,25.621,1.169,34.719
							c4.755,0.552,11.282,0.886,18.167-0.016c-0.345-9.671,0.498-24.653,1.489-35.686
							C319.138,175.162,318.678,167.863,318.256,163.89z"/>
					</g>
					<g>
						<g>
							<path style="fill:#F7A180;" d="M354.781,260.506c0,0-0.868-8.274-1.593-10.636c-0.725-2.362,7.374-2.462,7.374-2.462
								s1.372,11.771,4.797,16.054S354.781,260.506,354.781,260.506z"/>
							<g>
								<path style="fill:#F97F67;" d="M371.349,283.821c0,0,0.868,2.666,0.328,3.017c-0.54,0.35-2.474-0.895-3.694-3.259
									c-1.22-2.364-1.622-4.711-2.474-6.971c-0.852-2.26-2.673-4.544-2.673-4.544s-2.904-2.659-4.293-3.122
									c-1.389-0.463,1.396-4.476,1.396-4.476s7.044,4.377,8.467,8.669S371.349,283.821,371.349,283.821z"/>
								<path style="fill:#F97F67;" d="M365.807,277.456c0,0-0.083,6.378,0.054,7.425c0.137,1.047-1.813,1.36-2.613-0.097
									c-0.8-1.457,0.091-6.545-1.244-10.846c-1.335-4.301-3.875-5.012-3.875-5.012s1.597-1.135,3.19-0.252
									C362.912,269.556,365.553,274.25,365.807,277.456z"/>
								<path style="fill:#F97F67;" d="M363.9,283.628c0,0-1.81-0.177-2.457-0.503c-0.647-0.326-1.195-2.13-1.071-3.909
									c0.124-1.779-0.072-3.213-0.146-4.355c-0.075-1.142-0.63-2.363-1.089-3.038c-0.458-0.676,0.269-3.118,0.269-3.118
									s1.91,1.227,3.079,5.25C363.655,277.98,363.9,283.628,363.9,283.628z"/>
								<path style="fill:#F7A180;" d="M358.765,254.569c0,0,8.747,11.411,9.828,13.866c1.081,2.455,4.109,15.628,3.491,16.484
									c-0.618,0.855-2.522-1.52-3.038-3.405c-0.516-1.885-1.709-7.637-3.388-9.784c-1.678-2.148-4.522-4.447-6.485-5.233
									c-1.963-0.787-4.665-6.924-4.459-9.331C354.921,254.758,356.849,253.85,358.765,254.569z"/>
								<path style="fill:#E26F60;" d="M364.442,285.624c0,0-1.298,0.336-1.391-4.332c-0.093-4.668-1.048-7.353-1.048-7.353
									s0.781,4.215,0.776,5.944C362.774,281.611,362.259,285.241,364.442,285.624z"/>
								<path style="fill:#D3846E;" d="M359.126,272.132c0,0,1.062,0.986,1.12,4.158c0.058,3.172-0.307,5.893,1.197,6.836
									c0,0-1.077-2.153-0.947-5.688c0.131-3.535-1.343-6.059-1.343-6.059L359.126,272.132z"/>
								<path style="fill:#E26F60;" d="M362.834,272.064c0,0,3.165,3.136,4.007,7.283c0.843,4.147,2.807,6.47,2.807,6.47
									s-2.542-2.599-3.671-6.886C364.85,274.643,362.834,272.064,362.834,272.064z"/>
								<path style="fill:#F7A180;" d="M355.307,257.791c0,0-1.602,5.292-0.313,8.467c1.289,3.176,0.495,8.003,1.17,8.769
									c0.675,0.766,3.092,1.926,3.354-5.144C359.779,262.813,358.454,258.236,355.307,257.791z"/>
							</g>
						</g>
						<g>
							<path style="fill:#66223C;" d="M356.022,196.965c-3.621-13.469-10.738-27.201-18.158-32.339
								c0.371,0.445,0.742,1.078,1.045,1.989c0.113,0.317,0.204,0.653,0.277,1.005c0.371,1.641,0.54,3.948,0.277,7.201
								c-0.666,8.25-2.272,19.396-3.484,27.208c-0.037,0.947-0.099,1.615-0.198,1.639c-0.12,1.082-0.263,2.167-0.42,3.243
								c5.864,19.136,16.099,50.498,17.594,51.395c2.079,1.248,10.605,0.624,12.684-4.313
								C367.719,249.055,359.921,211.468,356.022,196.965z"/>
							<g>
								<g>
									<path style="fill:#882F4D;" d="M335.979,202.028c1.212-7.812,2.817-18.957,3.484-27.208
										c0.263-3.254,0.094-5.56-0.277-7.201c-0.073-0.351-0.164-0.687-0.277-1.005c-0.303-0.911-0.674-1.544-1.045-1.989
										c-0.858-1.028-1.713-1.034-1.713-1.034c-7.708-3.431-19.272-6.706-19.272-6.706c0.057,0.589,0.397,1.894,0.945,3.703
										l-0.009-0.012c0,0,0.215,1.189,0.441,3.314c0.422,3.973,0.882,11.272,0.047,20.577c-0.99,11.033-1.834,26.015-1.489,35.686
										c0.057,1.597,0.148,3.042,0.274,4.307l14.554-0.361c0,0,2.408-8.25,3.719-17.19c0.158-1.076,0.3-2.16,0.42-3.243
										C335.88,203.643,335.942,202.974,335.979,202.028z"/>
									<path style="fill:#66223C;" d="M317.088,224.461l-0.513,0.013c0,0-0.946,5.289,2.279,5.344
										c0.742,0.013,1.855,0.039,3.125,0.059c2.731,0.041,6.191,0.047,8.295-0.202c1.172-0.138,1.924-0.355,1.888-0.689
										c-0.013-0.12-0.029-0.268-0.046-0.43c-0.016-0.155-0.034-0.322-0.054-0.505c-0.067-0.629-0.148-1.39-0.221-2.078
										c-0.068-0.644-0.13-1.218-0.165-1.556c-0.021-0.197-0.034-0.317-0.034-0.317L317.088,224.461z"/>
								</g>
								<path style="fill:#66223C;" d="M314.732,153.041c1.946,0.206,6.53,1.129,6.66,5.201l-2.19,8.627l-4.41-3.317
									C315.031,161.586,314.863,155.908,314.732,153.041z"/>
							</g>
						</g>
					</g>
					<g>
						<g>
							<g>
								<path style="fill:#F7A180;" d="M270.606,113.249c0,0,5.075-2.036,6.573-3.032c1.498-0.995,2.847-1.318,4.413-2.305
									c1.566-0.987,4.085-0.999,5.861,0.316c1.776,1.314,2.455-1.503,0.651-3.165c-1.803-1.663-4.036-2.226-5.158-1.537
									c-1.123,0.689-2.962,0.781-2.683-0.117s5.36-7.677,7.505-11.217c2.144-3.54,2.266-4.56,1.165-5.174
									s-1.557-0.254-2.773,1.568c-1.216,1.822-5.376,7.813-5.833,8.173c-0.457,0.36,4.996-9.549,5.456-11.391
									s-0.488-2.576-1.19-2.763c-0.702-0.187-1.488,1.79-2.737,3.884c-1.249,2.094-4.39,8.517-4.809,8.847
									c-0.419,0.33,0.596-1.611,1.798-4.547c1.202-2.936,1.734-5.02,1.555-6.128c-0.179-1.108-1.12-1.204-1.705-1.066
									c-0.585,0.138-1.759,3.949-2.171,5.246c-0.412,1.296-2.402,5.346-2.962,5.927c-0.56,0.58-0.663-0.079-0.403-0.746
									c0.26-0.668,1.293-3.701,1.71-5.696c0.418-1.994,0.361-1.949-0.061-2.542c-0.421-0.593-1.215-0.661-1.657,0.01
									c-0.442,0.672-1.786,6.773-3.102,8.92s-3.395,5.358-3.796,6.414c-0.401,1.056-0.452,5.845-0.671,6.819
									C265.364,108.92,268.988,114.35,270.606,113.249z"/>
								<path style="fill:#DB836E;" d="M273.702,104.631c0,0,4.783-2.227,4.121-2.754c-0.662-0.527-4.198-0.084-4.964-0.899
									C272.094,100.163,271.416,103.843,273.702,104.631z"/>
							</g>
							<g>
								<path style="fill:#F7A180;" d="M270.927,112.615c0,0-11.92,23.616-13.83,24.948c0,0-9.555,13.459-11.383,13.144
									c-2.89-0.498-10.085-0.472-2.569-13.24c7.516-12.768,22.381-30.032,22.381-30.032L270.927,112.615z"/>
							</g>
						</g>
						<g>
							<path style="fill:#66223C;" d="M279.285,186.373c2.633-21.919,11.486-20.138,9.894-26.224l0,0
								c-0.011-0.01-8.597-7.896-30.209-18.287c0,0,9.357-12.892,11.852-26.615c0,0-6.03-2.911-7.278-7.901
								c0,0-19.235,22.916-24.433,33.313c-4.456,8.912,27.632,41.22,37.413,45.906C278.153,187.345,279.166,187.362,279.285,186.373
								z"/>
							<g>
								<g>
									<path style="fill:#882F4D;" d="M283.24,224.65l14.859,0.369c0.223-1.399,0.406-3.034,0.548-4.849
										c0.713-9.098,0.388-22.782-1.169-34.719c-1.32-10.118-0.925-18.936-0.662-22.563c0.054-0.739,0.101-1.262,0.128-1.536
										c0.014-0.146,0.023-0.229,0.023-0.229l-0.009,0.012c0.023-0.076,0.044-0.146,0.066-0.221
										c0.508-1.691,0.824-2.918,0.879-3.482c0,0-3.925,1.112-8.724,2.718l0,0c1.592,6.086-7.262,4.305-9.894,26.224
										c-0.119,0.989-1.132,0.972-2.761,0.191c0.715,5.645,1.565,11.405,2.279,16.009c0.037,0.947,0.099,1.615,0.198,1.639
										c1.116,10.08,4.139,20.433,4.139,20.433l-0.52,4.886c0,0,0.037,0.005,0.101,0.013c0-0.003-0.002-0.005-0.001-0.008
										C282.849,228.325,283.24,224.65,283.24,224.65z"/>
									<path style="fill:#66223C;" d="M292.917,230.427c1.172-0.018,2.204-0.042,2.938-0.055c0.058-0.001,0.119-0.002,0.173-0.003
										c3.225-0.055,2.279-5.344,2.279-5.344l-0.208-0.005l-14.859-0.369c0,0-0.391,3.675-0.52,4.886
										c0,0.003,0.002,0.005,0.001,0.008c-0.029,0.43,1.257,0.665,3.066,0.786C287.872,230.471,290.647,230.461,292.917,230.427z"
										/>
								</g>
								<path style="fill:#66223C;" d="M300.363,152.392c-0.019,0.16-0.075,0.663-0.095,0.837
									c-0.117,0.993-0.413,9.255-0.562,10.136c-0.004,0.022,0.486-0.026,0,0l-3.804,3.503l-2.19-8.627
									C293.838,154.3,298.326,152.638,300.363,152.392z"/>
							</g>
						</g>
					</g>
				</g>
			</g>
			<g>
				<g>
					<path style="fill:#F7A180;" d="M314.653,151.622l-14.112-0.929c0,0,0,0.003-0.2,1.702c0.007-0.001,0.015-0.003,0.022-0.003
						c-0.019,0.16-0.075,0.663-0.095,0.837c-0.116,0.986-0.409,9.134-0.558,10.109c0.012,0.009,0.024,0.017,0.036,0.025
						c0.317-0.016,0.114,0.007,0.01,0.007c5.289,3.797,11.846,1.654,15.068,0.166C315.197,160.515,314.653,151.622,314.653,151.622z
						"/>
					<path style="fill:#DB836E;" d="M314.732,153.041l0.111,2.017c0,0-7.06,5.115-14.662-1.055l0.31-2.753L314.732,153.041z"/>
				</g>
				<g>
					<g>
						<g>
							<g>
								<g>
									<path style="fill:#F7A180;" d="M311.002,154.647c0,0-6.411,1.121-12.151-3.285c-5.74-4.406-5.642-8.673-6.391-8.225
										c-0.925,0.552-2.55,0.378-4.064-4.829c-1.352-4.649-0.264-6.248,0.794-6.51c0.677-0.167,1.439,0.443,1.439,0.443
										s-3.142-22.981,14.401-24.779c21.834-2.238,21.069,17.779,20.274,24.393c0,0,2.014-2.468,3.069,0.801
										c1.056,3.269-0.83,10.246-3.266,10.504c-0.211,0.022-1.322-0.435-1.37-0.366
										C322.869,144.022,320.549,152.146,311.002,154.647z"/>
								</g>
								<g>
									<path style="fill:#E26464;" d="M325.489,136.003c0,0,0.842,0.843,0.338,1.945s0.051,1.363,0.646,0.783
										s1.056-3.796,0.478-4.455S325.363,135.274,325.489,136.003z"/>
									<path style="fill:#E26464;" d="M290.391,135.979c0,0-0.698,0.965-0.027,1.974c0.671,1.009,0.164,1.354-0.514,0.875
										c-0.678-0.48-1.64-3.582-1.173-4.324C289.143,133.762,290.401,135.239,290.391,135.979z"/>
								</g>
							</g>
							<g>
								<g>
									<path style="fill:#E26464;" d="M308.505,147.876c0.023,0,0.046-0.001,0.069-0.001c1.446-0.039,2.179-0.744,2.528-1.278
										c0.185-0.283,0.036-0.663-0.289-0.754l0,0c-0.212-0.059-0.433,0.029-0.556,0.212c-0.221,0.327-0.708,0.788-1.71,0.816
										c-1.11,0.03-1.827-0.534-2.173-0.9c-0.16-0.17-0.42-0.197-0.619-0.076l-0.001,0c-0.269,0.164-0.327,0.536-0.11,0.766
										C306.12,147.165,307.058,147.892,308.505,147.876z"/>
								</g>
								<g>
									
										<ellipse transform="matrix(0.9961 -0.0882 0.0882 0.9961 -11.2993 26.844)" style="fill:#E26464;" cx="297.995" cy="141.233" rx="2.116" ry="1.984"/>
									<g>
										<path style="fill:#2D1816;" d="M300.628,129.001c0,0-2.548-0.085-2.729,1.324c-0.191,1.483,0.999-0.186,3.007,0.162
											c0.897,0.156,1.289,0.057,1.279-0.481C302.165,129.048,300.77,129.015,300.628,129.001z"/>
										<g>
											
												<ellipse transform="matrix(0.9961 -0.0882 0.0882 0.9961 -10.747 27.0603)" style="fill:#2D1816;" cx="300.719" cy="135.094" rx="1.827" ry="2.248"/>
											<g>
												<path style="fill:#2D1816;" d="M299.814,133.73c0,0-1.099-0.699-0.911-1.042s-0.818,0.129-0.37,0.571
													C298.981,133.701,299.587,134.119,299.814,133.73z"/>
												<path style="fill:#2D1816;" d="M299.396,133.886c0,0-1.228-0.306-1.243-0.724c-0.015-0.418-0.599,0.431-0.022,0.716
													C298.708,134.163,299.401,134.364,299.396,133.886z"/>
												<path style="fill:#2D1816;" d="M299.112,134.33c0,0-1.193-0.004-1.346-0.431s-0.387,0.596,0.22,0.743
													C298.594,134.79,299.276,134.822,299.112,134.33z"/>
											</g>
										</g>
									</g>
								</g>
								<g>
									
										<ellipse transform="matrix(1 -0.0019 0.0019 1 -0.2735 0.6195)" style="fill:#E26464;" cx="317.703" cy="140.658" rx="2.116" ry="1.984"/>
									<g>
										<path style="fill:#2D1816;" d="M314.192,128.852c0,0,2.545-0.141,2.758,1.264c0.223,1.479-1.003-0.164-3.003,0.228
											c-0.894,0.175-1.288,0.086-1.289-0.453C312.656,128.933,314.049,128.869,314.192,128.852z"/>
										<g>
											
												<ellipse transform="matrix(1 -0.0019 0.0019 1 -0.2619 0.6138)" style="fill:#2D1816;" cx="314.813" cy="134.684" rx="1.827" ry="2.248"/>
											<g>
												<path style="fill:#2D1816;" d="M315.549,133.189c0,0,1.083-0.723,0.888-1.062c-0.195-0.339,0.82,0.111,0.382,0.563
													S315.785,133.573,315.549,133.189z"/>
												<path style="fill:#2D1816;" d="M315.97,133.336c0,0,1.221-0.333,1.227-0.751c0.006-0.418,0.608,0.418,0.038,0.715
													C316.664,133.597,315.976,133.814,315.97,133.336z"/>
												<path style="fill:#2D1816;" d="M316.265,133.774c0,0,1.192-0.03,1.337-0.46c0.144-0.43,0.4,0.588-0.204,0.748
													C316.793,134.222,316.111,134.269,316.265,133.774z"/>
											</g>
										</g>
									</g>
								</g>
							</g>
						</g>
						<path style="fill:#E26464;" d="M307.934,137.457c0,0,2.051-0.873,2.28,1.572s-2.032,2.196-2.032,2.196
							s-0.38-0.214-0.217-0.623c0.163-0.409,1.816-0.1,1.651-1.458c-0.166-1.358-1.491-0.773-1.718-0.962
							S307.934,137.457,307.934,137.457z"/>
					</g>
					<g>
						<path style="fill:#D6455D;" d="M309.44,118.897c0,0-0.245,4.567-9.378,7.089c-7.828,2.161-2.481,17.171-6.035,23.89
							c-2.392,4.523-6.784,8.064-8.967,7.556c0,0,2.526-4.354,0.153-14.414c-2.752-11.669-0.716-20.221,0.968-24.955
							c5.656-15.907,21.947-13.036,22.624-11.87C309.482,107.357,311.042,117.441,309.44,118.897z"/>
						<path style="fill:#D6455D;" d="M309.255,118.897c0,0,1.382,3.431,5.348,4.263c3.966,0.832,7.222,9.132,6.54,16.635
							c-0.395,4.348-1.373,12.84-4.283,17.091c0,0,10.386-1.414,13.114-9.009c2.728-7.595-0.675-21.182-2.675-27.212
							c-2-6.03-4.173-9.981-7.724-12.892c-3.551-2.911-9.824-1.363-11.2-0.003S309.255,118.897,309.255,118.897z"/>
					</g>
				</g>
			</g>
		</g>
	</g>
</g>
</svg>
